<?xml version="1.0" encoding="utf-8"?>
<!-- Generator: Adobe Illustrator 27.0.0, SVG Export Plug-In . SVG Version: 6.00 Build 0)  -->
<svg version="1.1" xmlns="http://www.w3.org/2000/svg" xmlns:xlink="http://www.w3.org/1999/xlink" x="0px" y="0px"
	 viewBox="0 0 159.47 101.4" style="enable-background:new 0 0 159.47 101.4;" xml:space="preserve">
<style type="text/css">
	.st0{fill:#A8FF00;}
	.st1{fill:#F8F9ED;}
	.st2{fill:#02403D;}
	.st3{fill:#C9C9C9;}
	.st4{fill:#F7F7F7;}
	.st5{fill:#FFFFFF;}
	.st6{fill:#231F20;}
</style>
<g id="Logo_Principal">
</g>
<g id="Logo_secundario">
</g>
<g id="Logo_secundario_x2C__cuadrado">
</g>
<g id="Submarca">
	<g>
		<path class="st5" d="M150.17,0l-33.18,73.36c-1.72,4.14-3.55,8.1-5.27,12.2h-0.42c-1.55-4.1-3.55-8.06-5.24-12.2L85.02,27.09
			c2.8,6.24,4.27,13.34,4.27,20.96v0.22l21.6,47.8h0.97L155.14,0H150.17z"/>
		<path class="st5" d="M85.02,27.09c-2.86-6.32-7.1-11.81-12.59-16.11C64.09,4.47,52.89,0.64,39.22,0.64H22.64L0.21,46.86v48.43
			h39.01c31.41,0,49.96-20.04,50.07-47.02v-0.22C89.29,40.43,87.82,33.33,85.02,27.09z M37.5,75.55H23.61V20.38H37.8
			c16.31,0,28.09,9.37,28.09,27.67S53.83,75.55,37.5,75.55z"/>
	</g>
</g>
</svg>
